<?xml version="1.0" encoding="UTF-8" standalone="no"?>
<!DOCTYPE svg PUBLIC "-//W3C//DTD SVG 1.1//EN"
 "http://www.w3.org/Graphics/SVG/1.1/DTD/svg11.dtd">
<!-- Generated by graphviz version 2.26.3 (20100126.1600)
 -->
<!-- Title: Examples_EdgesToAndFromClusters Pages: 1 -->
<svg width="160pt" height="242pt"
 viewBox="0.00 0.00 160.00 242.00" xmlns="http://www.w3.org/2000/svg" xmlns:xlink="http://www.w3.org/1999/xlink">
<g id="graph1" class="graph" transform="scale(1 1) rotate(0) translate(4 238)">
<title>Examples_EdgesToAndFromClusters</title>
<polygon fill="white" stroke="white" points="-4,5 -4,-238 157,-238 157,5 -4,5"/>
<g id="graph2" class="cluster"><title>cluster_one</title>
<polygon fill="none" stroke="black" points="8,-146 8,-226 144,-226 144,-146 8,-146"/>
<text text-anchor="middle" x="76" y="-209.4" font-family="Arial, Sans-Serif" font-size="14.00">Cluster One</text>
</g>
<g id="graph3" class="cluster"><title>cluster_two</title>
<polygon fill="none" stroke="black" points="9,-8 9,-88 143,-88 143,-8 9,-8"/>
<text text-anchor="middle" x="76" y="-17.4" font-family="Arial, Sans-Serif" font-size="14.00">Cluster Two</text>
</g>
<!-- one -->
<g id="node2" class="node"><title>one</title>
<ellipse fill="none" stroke="black" cx="76" cy="-173" rx="60.1041" ry="18.3848"/>
<text text-anchor="middle" x="76" y="-169.4" font-family="Arial, Sans-Serif" font-size="14.00">Node One</text>
</g>
<!-- two -->
<g id="node4" class="node"><title>two</title>
<ellipse fill="none" stroke="black" cx="76" cy="-61" rx="58.8978" ry="18.3848"/>
<text text-anchor="middle" x="76" y="-57.4" font-family="Arial, Sans-Serif" font-size="14.00">Node Two</text>
</g>
<!-- one&#45;&gt;two -->
<g id="edge4" class="edge"><title>one&#45;&gt;two</title>
<path fill="none" stroke="black" d="M46.2677,-156.474C33.703,-137.922 32.1345,-107.611 41.5622,-86.1227"/>
<polygon fill="black" stroke="black" points="44.7026,-87.676 46.47,-77.2297 38.5739,-84.2938 44.7026,-87.676"/>
</g>
<!-- one&#45;&gt;two -->
<g id="edge6" class="edge"><title>one&#45;&gt;two</title>
<path fill="none" stroke="red" d="M64.2689,-146.078C61.9813,-128.993 61.9125,-106.91 64.0625,-89.5247"/>
<polygon fill="red" stroke="red" points="67.5391,-89.9492 65.6618,-79.522 60.6268,-88.844 67.5391,-89.9492"/>
</g>
<!-- one&#45;&gt;two -->
<g id="edge8" class="edge"><title>one&#45;&gt;two</title>
<path fill="none" stroke="green" d="M86.3326,-154.505C89.9273,-136.834 90.4623,-109.941 87.9375,-89.5247"/>
<polygon fill="green" stroke="green" points="94.2538,-96.0268 87.3382,-88 87.7388,-98.5874 94.2538,-96.0268"/>
</g>
<!-- one&#45;&gt;two -->
<g id="edge10" class="edge"><title>one&#45;&gt;two</title>
<path fill="none" stroke="blue" d="M111.179,-146.114C117.059,-131.501 118.066,-113.225 114.199,-97.3575"/>
<polygon fill="blue" stroke="blue" points="117.471,-96.0997 111.083,-87.6478 110.806,-98.2391 117.471,-96.0997"/>
</g>
</g>
</svg>
